<?xml version="1.0" encoding="UTF-8"?> <svg xmlns="http://www.w3.org/2000/svg" id="Layer_1" version="1.1" viewBox="0 0 588.8 448.7"><defs><style> .st0 { fill: #2f2f2f; } .st1 { fill: #fff; } .st2 { fill: #e40614; } </style></defs><g><rect class="st2" x="239.5" y="101.8" width="109.8" height="559" transform="translate(675.7 87) rotate(90)"></rect><g><rect class="st1" x="547.3" y="374" width="26.5" height="14.7"></rect><path class="st1" d="M491.6,388.7h-56.3v-14.7h56.3v14.7ZM379,388.7h-56.3v-14.7h56.3v14.7ZM266.5,388.7h-56.3v-14.7h56.3v14.7ZM153.9,388.7h-56.3v-14.7h56.3v14.7Z"></path><rect class="st1" x="14.9" y="374" width="26.4" height="14.7"></rect></g><g><rect class="st2" x="391.2" y="80.6" width="182.6" height="240.4"></rect><rect class="st2" x="203.2" y="80.6" width="182.6" height="240.4"></rect><rect class="st2" x="14.9" y="80.6" width="182.6" height="240.4"></rect><rect class="st1" x="48" y="114.3" width="33" height="176.8"></rect><rect class="st1" x="236.2" y="114.3" width="33" height="176.8"></rect><rect class="st1" x="281.9" y="114.3" width="64.7" height="33.2"></rect><rect class="st1" x="281.9" y="257.8" width="64.7" height="33.2"></rect><rect class="st1" x="281.9" y="188.8" width="48" height="33.2"></rect><rect class="st1" x="424.3" y="114.3" width="33" height="176.8"></rect><path class="st1" d="M129.4,222.4c7.4-.6,15.3-5.6,20.6-10.6,23.1-21.9,23.1-64.2-.9-85.4-15.7-13.9-29.9-12.2-49.2-12.1-2.1,0-4.3,0-6.4,0v31.6c17.9.2,20.9-1.6,30.4,3,14.5,6.9,14.6,32.1,1.5,40.3-7.2,4.5-21.7,3.5-31.9,3.7v35.4l37.3,62.7h37.3l-38.7-68.6Z"></path><path class="st1" d="M545.4,163.7c-.7-14-4.3-26.6-14.5-36.5-16.7-16.2-39.4-12.6-60.8-13v32.3c0,0,28.8-.1,28.8-.1,10.6.7,12.7,6.9,13.2,16.5v79.4c-.5,9.6-2.7,15.8-13.2,16.5h-28.7c0-.1,0,32.2,0,32.2,21.4-.4,44.1,3.2,60.8-13,10.2-9.9,13.9-22.5,14.5-36.5v-77.7h0Z"></path></g></g><g><path class="st0" d="M15,13.3h16.3c15,0,23.7,8.6,23.7,20.8h0c0,12.3-8.8,21.3-23.9,21.3H15V13.3ZM26.6,23.6v21.4h4.7c7,0,11.7-3.8,11.7-10.6h0c0-6.9-4.6-10.8-11.7-10.8h-4.7Z"></path><path class="st0" d="M61,13.3h19.9c6.5,0,10.9,1.7,13.7,4.5,2.5,2.5,3.7,5.8,3.7,9.8h0c0,6.6-3.4,10.9-8.7,13.1l10,14.7h-13.4l-8.5-12.7h-5.2v12.7h-11.7V13.3ZM80.4,33.5c3.9,0,6.2-1.9,6.2-5h0c0-3.5-2.5-5.2-6.3-5.2h-7.7v10.2h7.7Z"></path><path class="st0" d="M104.5,13.3h11.7v42h-11.7V13.3Z"></path><path class="st0" d="M120.5,13.3h13l9.6,26.6,9.6-26.6h12.7l-17.1,42.4h-10.8l-17-42.4Z"></path><path class="st0" d="M169.5,13.3h33.8v9.9h-22.3v6.4h20.2v9.2h-20.2v6.7h22.6v9.9h-34.1V13.3Z"></path><path class="st0" d="M209.6,13.3h19.9c6.5,0,10.9,1.7,13.7,4.5s3.7,5.8,3.7,9.8h0c0,6.6-3.4,10.9-8.7,13.1l10,14.7h-13.4l-8.5-12.7h-5.2v12.7h-11.7V13.3ZM229,33.5c3.9,0,6.2-1.9,6.2-5h0c0-3.5-2.5-5.2-6.3-5.2h-7.7v10.2h7.7Z"></path><path class="st0" d="M281.1,23.5h-12.6v-10.2h36.8v10.2h-12.6v31.8h-11.7v-31.8Z"></path><path class="st0" d="M310.5,13.3h19.9c6.5,0,10.9,1.7,13.7,4.5,2.5,2.5,3.7,5.8,3.7,9.8h0c0,6.6-3.4,10.9-8.7,13.1l10,14.7h-13.4l-8.5-12.7h-5.2v12.7h-11.7V13.3ZM329.9,33.5c3.9,0,6.2-1.9,6.2-5h0c0-3.5-2.5-5.2-6.3-5.2h-7.7v10.2h7.7Z"></path><path class="st0" d="M367.4,13h11.2l17.9,42.4h-12.5l-3-7.6h-16.3l-3,7.6h-12.2l17.8-42.4ZM377.6,38.7l-4.7-11.9-4.7,11.9h9.4Z"></path><path class="st0" d="M401,13.3h11.7v42h-11.7V13.3Z"></path><path class="st0" d="M420.3,13.3h10.9l17.3,22.2V13.3h11.5v42h-10.2l-18-23.1v23.1h-11.5V13.3Z"></path><path class="st0" d="M467.8,13.3h11.7v42h-11.7V13.3Z"></path><path class="st0" d="M487.1,13.3h10.9l17.3,22.2V13.3h11.5v42h-10.2l-18-23.1v23.1h-11.5V13.3Z"></path><path class="st0" d="M532.9,34.4h0c0-12.4,9.6-22,22.6-22s12.6,2.2,17.1,6.1l-6.8,8.3c-3.1-2.6-5.9-4-10.2-4s-10.8,5-10.8,11.5h0c0,7,4.7,11.8,11.4,11.8s5-.6,6.7-1.7v-5.1h-8.2v-8.5h19.3v18.9c-4.5,3.8-10.5,6.5-18.3,6.5-13.2,0-22.8-8.9-22.8-21.7Z"></path></g></svg> 